<svg width="174" height="56" viewBox="0 0 174 56" fill="none" xmlns="http://www.w3.org/2000/svg">
<g id="Yooker Logo - Kleur 1" clip-path="url(#clip0_5776_899)">
<path id="Vector" d="M48.0236 0.5H7.00166C3.13475 0.5 0 3.63331 0 7.49844V48.5016C0 52.3667 3.13475 55.5 7.00166 55.5H48.0236C51.8906 55.5 55.0253 52.3667 55.0253 48.5016V7.49844C55.0253 3.63331 51.8906 0.5 48.0236 0.5Z" fill="#3E61FC"/>
<path id="Vector_2" d="M26.5709 32.5659C26.5709 32.5148 26.5709 32.466 26.5709 32.4149C26.6044 27.9111 28.3144 23.5811 31.3678 20.2688C34.4211 16.9566 38.599 14.8994 43.087 14.4982C43.5473 14.4654 43.9766 14.2545 44.2838 13.9105C44.5911 13.5664 44.7521 13.1163 44.7328 12.6555C44.7134 12.1947 44.5152 11.7596 44.1801 11.4425C43.8451 11.1255 43.3996 10.9513 42.9383 10.9572H42.7709C39.7919 11.2247 36.9007 12.106 34.2794 13.5456C31.6581 14.9853 29.3635 16.952 27.5402 19.3218C25.7157 16.9511 23.4196 14.9839 20.7966 13.5442C18.1736 12.1046 15.2807 11.2237 12.3002 10.9572H12.1398C11.6785 10.9513 11.233 11.1255 10.8979 11.4425C10.5629 11.7596 10.3647 12.1947 10.3453 12.6555C10.326 13.1163 10.487 13.5664 10.7943 13.9105C11.1015 14.2545 11.5308 14.4654 11.991 14.4982C14.6968 14.7419 17.3133 15.5903 19.647 16.9806C21.9806 18.3709 23.9719 20.2677 25.4736 22.5306C25.1138 23.2193 24.791 23.9266 24.5066 24.6497C23.2647 22.4317 21.5186 20.5365 19.4092 19.1171C17.2998 17.6976 14.8862 16.7935 12.363 16.4779C12.1314 16.4487 11.8964 16.4654 11.6713 16.5271C11.4463 16.5887 11.2355 16.6941 11.0512 16.8371C10.8668 16.9802 10.7125 17.1581 10.5969 17.3608C10.4814 17.5635 10.4069 17.7869 10.3778 18.0183C10.3486 18.2498 10.3654 18.4847 10.427 18.7097C10.4887 18.9346 10.5941 19.1453 10.7372 19.3295C11.0263 19.7017 11.4513 19.9438 11.919 20.0026C14.2722 20.294 16.4963 21.2401 18.3379 22.7332C20.1794 24.2263 21.5644 26.2064 22.3351 28.4479C23.1058 30.6893 23.2311 33.1021 22.6969 35.4113C22.1627 37.7205 20.9904 39.8333 19.3135 41.5091L18.6161 42.2062C18.3135 42.5331 18.1462 42.9627 18.1481 43.4081C18.1499 43.8535 18.3208 44.2816 18.6262 44.606C18.9315 44.9304 19.3487 45.1269 19.7934 45.1559C20.238 45.1849 20.6772 45.0441 21.0221 44.762C21.3033 44.5297 21.5753 44.2625 21.838 44.0022C22.891 42.9495 23.7944 41.7572 24.5229 40.4589C25.8543 38.0857 26.5636 35.4145 26.5848 32.6937C26.5709 32.6612 26.5709 32.6124 26.5709 32.5659Z" fill="white"/>
<path id="Vector_3" d="M42.9361 16.461C42.8584 16.4606 42.7808 16.4652 42.7037 16.4749C40.1804 16.7894 37.7664 17.6924 35.6565 19.1111C33.5467 20.5298 31.8001 22.4244 30.5577 24.6421C29.2277 27.0116 28.5184 29.6787 28.4958 32.3956V32.7209C28.4815 34.6596 28.155 36.5833 27.5287 38.4182C27.0639 39.7601 26.4478 41.0447 25.6923 42.2474C25.6458 42.3264 25.597 42.4054 25.5435 42.4797C25.2871 42.8756 25.1985 43.3572 25.2972 43.8184C25.3959 44.2797 25.674 44.6828 26.0701 44.9392C26.4662 45.1955 26.948 45.2841 27.4094 45.1854C27.8708 45.0867 28.2742 44.8088 28.5306 44.4129C28.9142 43.8274 29.2722 43.2186 29.5976 42.5936C29.9587 41.9052 30.2823 41.1978 30.567 40.4745C31.5538 37.9535 32.0592 35.27 32.057 32.5629C32.0596 29.4787 33.189 26.5016 35.233 24.1912C37.277 21.8807 40.0948 20.3959 43.1569 20.0159C43.6091 19.9642 44.0242 19.7409 44.3164 19.3922C44.6087 19.0434 44.7558 18.5958 44.7275 18.1418C44.6992 17.6877 44.4975 17.2619 44.1642 16.9521C43.8308 16.6424 43.3912 16.4724 42.9361 16.4772V16.461Z" fill="white"/>
<path id="Vector_4" d="M74.4373 39.7177C73.3052 42.6012 71.2456 44.0417 68.4979 44.0417C66.9468 44.0761 65.4396 43.5253 64.2765 42.4989L65.9572 39.4435C66.8149 40.0615 67.503 40.3357 68.3259 40.3357C69.5277 40.3357 70.4901 39.6851 71.1154 38.3119L71.7314 36.9387L64.1719 18.957H68.2585L73.7166 32.7982L78.8005 18.957H82.7523L74.4373 39.7177Z" fill="#3E61FC"/>
<path id="Vector_5" d="M101.602 28.0865C101.602 33.577 97.7218 37.3504 92.0916 37.3504C86.4615 37.3504 82.5469 33.577 82.5469 28.0865C82.5469 22.5612 86.4266 18.8203 92.0916 18.8203C97.7567 18.8203 101.602 22.5612 101.602 28.0865ZM86.4917 28.1214C86.4917 31.6554 88.7907 34.0579 92.087 34.0579C95.3832 34.0579 97.6497 31.6554 97.6497 28.1214C97.6497 24.5873 95.3484 22.2173 92.087 22.2173C88.8256 22.2173 86.4964 24.6198 86.4964 28.1214H86.4917Z" fill="#3E61FC"/>
<path id="Vector_6" d="M122.507 28.0865C122.507 33.577 118.63 37.3504 112.997 37.3504C107.365 37.3504 103.445 33.577 103.445 28.0865C103.445 22.5612 107.325 18.8203 112.988 18.8203C118.65 18.8203 122.507 22.5612 122.507 28.0865ZM107.397 28.1214C107.397 31.6554 109.698 34.0579 112.992 34.0579C116.286 34.0579 118.555 31.6554 118.555 28.1214C118.555 24.5873 116.256 22.2173 112.992 22.2173C109.729 22.2173 107.397 24.6198 107.397 28.1214Z" fill="#3E61FC"/>
<path id="Vector_7" d="M129.717 32.0994V37.2111H125.766V11.75H129.717V27.1224L137.786 18.9552H142.317L135.554 26.0257L142.835 37.2111H138.165L132.818 28.8464L129.717 32.0994Z" fill="#3E61FC"/>
<path id="Vector_8" d="M160.512 29.5937H146.711C147.329 32.4075 149.5 34.1571 152.376 34.1571C153.333 34.1679 154.283 33.9849 155.168 33.6192C156.053 33.2534 156.855 32.7124 157.525 32.0288L159.617 34.2594C157.832 36.2158 155.224 37.3473 152.064 37.3473C146.434 37.3473 142.727 33.6088 142.727 28.1183C142.727 22.593 146.537 18.8521 151.962 18.8242C158.385 18.8173 160.993 23.0042 160.512 29.5937ZM157.079 26.7102C156.941 23.7594 154.986 21.9749 151.999 21.9749C149.115 21.9749 147.09 23.7942 146.653 26.7102H157.079Z" fill="#3E61FC"/>
<path id="Vector_9" d="M167.686 22.596C168.923 20.1238 171.12 18.8203 174.002 18.8203V22.596C170.329 22.3892 167.995 24.5524 167.686 27.6752V37.2133H163.734V18.9574H167.686V22.596Z" fill="#3E61FC"/>
</g>
<defs>
<clipPath id="clip0_5776_899">
<rect width="174" height="55" fill="white" transform="translate(0 0.5)"/>
</clipPath>
</defs>
</svg>
